<svg enable-background="new 0 0 64 64" height="512" viewBox="0 0 64 64" width="512" xmlns="http://www.w3.org/2000/svg"><g id="Icons"><g><path d="m54.07 13.114c1.053.075 1.919.937 1.919 1.993v8.197c0 10.539-6.041 16.652-15.261 20.412-.485.198-1.041.197-1.525-.003-9.185-3.783-15.213-9.896-15.213-20.409l.01-8.201c.001-1.054.866-1.915 1.917-1.991 1.942-.139 3.688-1.565 4.269-3.608.248-.871 1.015-1.485 1.921-1.485h15.767c.905 0 1.673.614 1.92 1.485.581 2.049 2.332 3.471 4.276 3.61z" fill="#fab400"/><path d="m39.96 38.201c-.11 1.6-1.56 2.78-3.16 2.78h-2.96c-2.63-1.65-4.83-3.62-6.47-6h9.6c1.72 0 3.12 1.46 2.99 3.22z" fill="#be7800"/><path d="m40.388 40.565c-.26.113-.57.112-.83-.003-8.679-3.829-12.569-9.205-12.569-17.301l.007-6.53c0-.429.27-.825.682-.945 2.119-.62 3.915-2.165 4.901-4.204.173-.358.518-.6.915-.6h12.996c.397 0 .742.242.915.599.991 2.048 2.786 3.59 4.902 4.209.413.121.683.517.683.947v6.525c-.001 8.055-4.013 13.579-12.602 17.303z" fill="#00325a"/><path d="m39.96 38.201c-.06.83-.48 1.56-1.1 2.05-3.23-1.51-5.75-3.24-7.63-5.27h5.74c1.72 0 3.12 1.46 2.99 3.22z" fill="#00143c"/><path d="m14.968 55.981h-5.978c-.552 0-1-.448-1-1v-18c0-.552.448-1 1-1h5.979c.552 0 1 .448 1 1v18c-.001.552-.448 1-1.001 1z" fill="#c80a50"/><path d="m14.968 55.981h-5.978c-.552 0-1-.448-1-1v-5.011c0-2.203 1.786-3.989 3.989-3.989s3.989 1.786 3.989 3.989v5.011c0 .552-.447 1-1 1z" fill="#a00028"/><circle cx="11.99" cy="49.981" fill="#f0f0f0" r="2"/><g><path d="m37.212 31.274-4.828-4.828c-.391-.391-.391-1.024 0-1.414l1.414-1.414c.391-.391 1.024-.391 1.414 0l5.536 5.536-2.121 2.121c-.392.389-1.025.389-1.415-.001z" fill="#d2d2d2"/><path d="m35.09 29.153 9.677-9.677c.391-.391 1.024-.391 1.414 0l1.414 1.414c.391.391.391 1.024 0 1.414l-8.97 8.97c-.391.391-1.024.391-1.414 0z" fill="#f0f0f0"/></g><path d="m55.893 41.981c-.493-1.581-2.419-2.323-3.863-1.36l-8.04 5.35-10.021.005c-1.656.001-2.999-1.341-2.999-2.998 0-1.656 1.342-2.998 2.998-2.998h2.832c1.6 0 3.05-1.18 3.16-2.78.134-1.756-1.271-3.22-2.99-3.22h-10.237c-2.497 0-4.829 1.248-6.214 3.326l-.236.353c-.966 1.45-2.572 2.32-4.315 2.32v12l28.349-.01c1.083 0 2.133-.368 2.98-1.043l7.752-6.178c.829-.65 1.159-1.756.844-2.767z" fill="#f0c8a0"/></g></g></svg>